<svg width="100" height="100" viewBox="0 0 100 100" fill="none" xmlns="http://www.w3.org/2000/svg">
<path d="M50 100C56.839 100 63.279 98.689 69.319 96.067C75.359 93.478 80.665 89.88 85.235 85.276C89.837 80.671 93.448 75.364 96.069 69.353C98.689 63.309 100 56.85 100 49.976C100 43.133 98.689 36.707 96.069 30.695C93.448 24.652 89.837 19.329 85.235 14.724C80.665 10.12 75.344 6.523 69.271 3.933C63.231 1.311 56.791 0 49.952 0C43.113 0 36.673 1.311 30.633 3.933C24.592 6.523 19.271 10.12 14.669 14.724C10.099 19.329 6.504 24.652 3.883 30.695C1.294 36.707 0 43.133 0 49.976C0 56.85 1.294 63.309 3.883 69.353C6.504 75.364 10.115 80.671 14.717 85.276C19.319 89.88 24.64 93.478 30.681 96.067C36.721 98.689 43.161 100 50 100ZM44.679 73.765C43.688 73.765 42.793 73.557 41.994 73.141C41.195 72.694 40.444 72.022 39.741 71.127L28.188 57.218C27.74 56.611 27.389 56.019 27.133 55.444C26.91 54.836 26.798 54.213 26.798 53.573C26.798 52.23 27.261 51.095 28.188 50.168C29.115 49.209 30.249 48.729 31.592 48.729C32.391 48.729 33.11 48.905 33.749 49.257C34.388 49.576 35.027 50.136 35.666 50.935L44.535 62.062L63.854 31.175C65.005 29.352 66.427 28.441 68.121 28.441C69.399 28.441 70.534 28.857 71.524 29.688C72.547 30.52 73.059 31.607 73.059 32.95C73.059 33.557 72.931 34.165 72.675 34.772C72.451 35.38 72.164 35.955 71.812 36.499L49.425 71.127C48.849 71.958 48.146 72.614 47.315 73.094C46.516 73.541 45.638 73.765 44.679 73.765Z" fill="#2774AE"/>
</svg>
