<svg width="13" height="10" viewBox="0 0 13 10" fill="none" xmlns="http://www.w3.org/2000/svg">
<path d="M12.2619 1.33865L4.6837 8.91682C4.61769 8.98306 4.53926 9.03561 4.45291 9.07147C4.36655 9.10732 4.27396 9.12578 4.18046 9.12578C4.08695 9.12578 3.99437 9.10732 3.90801 9.07147C3.82165 9.03561 3.74322 8.98306 3.67722 8.91682L0.361768 5.60137C0.295682 5.53529 0.24326 5.45683 0.207494 5.37048C0.171729 5.28414 0.15332 5.19159 0.15332 5.09813C0.15332 5.00467 0.171729 4.91213 0.207494 4.82578C0.24326 4.73944 0.295682 4.66098 0.361768 4.5949C0.427855 4.52881 0.50631 4.47639 0.592656 4.44062C0.679002 4.40486 0.771547 4.38645 0.865007 4.38645C0.958466 4.38645 1.05101 4.40486 1.13736 4.44062C1.2237 4.47639 1.30216 4.52881 1.36824 4.5949L4.18105 7.4077L11.2566 0.333356C11.39 0.199889 11.5711 0.124908 11.7598 0.124908C11.9486 0.124908 12.1296 0.199889 12.2631 0.333356C12.3965 0.466823 12.4715 0.647844 12.4715 0.836595C12.4715 1.02535 12.3965 1.20637 12.2631 1.33983L12.2619 1.33865Z" fill="white"/>
</svg>
