<svg width="27" height="34" viewBox="0 0 27 34" fill="none" xmlns="http://www.w3.org/2000/svg">
<path d="M13.2978 0C9.77223 0.00399951 6.39221 1.4063 3.89925 3.89925C1.4063 6.39221 0.00399951 9.77223 0 13.2978C0 24.6765 12.0889 33.2702 12.6042 33.6298C12.8075 33.7722 13.0496 33.8486 13.2978 33.8486C13.546 33.8486 13.7881 33.7722 13.9914 33.6298C14.5067 33.2702 26.5956 24.6765 26.5956 13.2978C26.5916 9.77223 25.1893 6.39221 22.6963 3.89925C20.2034 1.4063 16.8234 0.00399951 13.2978 0ZM13.2978 8.46223C14.2542 8.46223 15.1891 8.74584 15.9843 9.27717C16.7795 9.80851 17.3993 10.5637 17.7653 11.4473C18.1313 12.3309 18.227 13.3032 18.0404 14.2412C17.8539 15.1792 17.3933 16.0408 16.7171 16.7171C16.0408 17.3933 15.1792 17.8539 14.2412 18.0404C13.3032 18.227 12.3309 18.1313 11.4473 17.7653C10.5637 17.3993 9.80851 16.7795 9.27717 15.9843C8.74584 15.1891 8.46223 14.2542 8.46223 13.2978C8.46223 12.0153 8.97169 10.7854 9.87854 9.87854C10.7854 8.97169 12.0153 8.46223 13.2978 8.46223Z" fill="#EF3340"/>
</svg>
